HIERARCHY
ROOT Hips
{
	OFFSET	0.000000	0.000000	0.000000
	CHANNELS 6 Xposition Yposition Zposition Zrotation Xrotation Yrotation
	JOINT LeftUpLeg
	{
		OFFSET	12.811937	-7.635976	0.557276
		CHANNELS 3 Zrotation Xrotation Yrotation
		JOINT LeftLeg
		{
			OFFSET	-0.429270	-42.206163	-1.204951
			CHANNELS 3 Zrotation Xrotation Yrotation
			JOINT LeftFoot
			{
				OFFSET	-2.112259	-42.464481	-3.973220
				CHANNELS 3 Zrotation Xrotation Yrotation
				JOINT LeftFootHeel
				{
					OFFSET	0.387196	-5.329707	-3.419729
					CHANNELS 3 Zrotation Xrotation Yrotation
					End Site
					{
						OFFSET	0.327567	-0.000003	16.505428
					}
				}
			}
		}
	}
	JOINT RightUpLeg
	{
		OFFSET	-12.811937	-7.635976	0.557276
		CHANNELS 3 Zrotation Xrotation Yrotation
		JOINT RightLeg
		{
			OFFSET	0.429270	-42.206163	-1.204951
			CHANNELS 3 Zrotation Xrotation Yrotation
			JOINT RightFoot
			{
				OFFSET	2.112259	-42.464481	-3.973220
				CHANNELS 3 Zrotation Xrotation Yrotation
				JOINT RightFootHeel
				{
					OFFSET	-0.387198	-5.329707	-3.419729
					CHANNELS 3 Zrotation Xrotation Yrotation
					End Site
					{
						OFFSET	-0.327566	-0.000003	16.505428
					}
				}
			}
		}
	}
	JOINT Spine
	{
		OFFSET	0.000000	13.731316	-1.007646
		CHANNELS 3 Zrotation Xrotation Yrotation
		JOINT Spine1
		{
			OFFSET	0.000000	12.091746	-0.604589
			CHANNELS 3 Zrotation Xrotation Yrotation
			JOINT LeftShoulder
			{
				OFFSET	5.746115	20.990027	-0.833816
				CHANNELS 3 Zrotation Xrotation Yrotation
				JOINT LeftArm
				{
					OFFSET	10.881538	-1.359258	0.219250
					CHANNELS 3 Zrotation Xrotation Yrotation
					JOINT LeftForeArm
					{
						OFFSET	4.390314	-31.537147	0.202818
						CHANNELS 3 Zrotation Xrotation Yrotation
						JOINT LeftHand
						{
							OFFSET	3.168650	-24.865025	5.373370
							CHANNELS 3 Zrotation Xrotation Yrotation
							End Site
							{
								OFFSET	1.457528	-10.806075	2.170267
							}
						}
					}
				}
			}
			JOINT RightShoulder
			{
				OFFSET	-5.746115	20.990027	-0.833816
				CHANNELS 3 Zrotation Xrotation Yrotation
				JOINT RightArm
				{
					OFFSET	-10.881538	-1.359258	0.219250
					CHANNELS 3 Zrotation Xrotation Yrotation
					JOINT RightForeArm
					{
						OFFSET	-4.390314	-31.537147	0.202818
						CHANNELS 3 Zrotation Xrotation Yrotation
						JOINT RightHand
						{
							OFFSET	-3.168650	-24.865025	5.373370
							CHANNELS 3 Zrotation Xrotation Yrotation
							End Site
							{
								OFFSET	-1.457528	-10.806075	2.170267
							}
						}
					}
				}
			}
			JOINT Neck
			{
				OFFSET	0.000000	27.075639	0.680489
				CHANNELS 3 Zrotation Xrotation Yrotation
				JOINT Head
				{
					OFFSET	0.000000	12.391288	1.239129
					CHANNELS 3 Zrotation Xrotation Yrotation
					End Site
					{
						OFFSET	0.000000	13.818692	-0.105853
					}
				}
			}
		}
	}
}
MOTION
Frames:    18
Frame Time: 0.016667
-7.304497	95.968724	16.700423	9.059834	16.624660	85.866096	-8.527634	6.234376	-3.461689	-1.883257	-1.980138	-6.287296	-5.176675	3.908600	4.095055	0.	0.	0.	-20.172714	-10.523830	-28.435709	3.440589	57.174770	-8.704734	1.656059	-12.266542	-4.977684	0.	0.	0.	0.000002	0.000001	0.000000	-12.887538	15.491540	7.182481	-2.178995	2.180176	1.483628	1.917179	-9.338712	-5.578073	-3.667423	-6.372014	-3.127874	5.958438	-2.254206	-22.874346	-1.810136	-3.691689	-3.678982	5.568622	-7.275777	-3.943106	-2.099645	2.469525	24.668869	-5.188656	5.499703	8.513512	-6.258912	-1.787633	2.665688	-10.566775	-6.577282	6.533403	
-7.305030	95.968714	16.700169	9.059834	16.624660	85.866096	-8.529021	6.231556	-3.491105	-1.883355	-1.977353	-6.282350	-5.175939	3.905780	4.119594	0.	0.	0.	-20.174227	-10.519183	-28.465315	3.398415	57.173149	-8.650352	1.656059	-12.266542	-4.977684	0.	0.	0.	0.000002	0.000001	0.000000	-12.887538	15.491540	7.182481	-2.184092	2.198273	1.471110	1.925054	-9.351738	-5.607160	-3.648341	-6.374719	-3.121531	5.953546	-2.252807	-22.868753	-1.818425	-3.679387	-3.698398	5.580216	-7.285631	-3.923011	-2.099645	2.469525	24.668869	-5.211335	5.498176	8.508677	-6.254101	-1.786472	2.726956	-10.829100	-6.657039	6.595606	
-7.305226	95.968695	16.700029	9.059834	16.624660	85.866096	-8.529834	6.229913	-3.508305	-1.883607	-1.975661	-6.281467	-5.175446	3.903904	4.135936	0.	0.	0.	-20.175314	-10.515827	-28.486734	3.367897	57.171967	-8.611017	1.656059	-12.266542	-4.977684	0.	0.	0.	0.000002	0.000001	0.000000	-12.887538	15.491540	7.182481	-2.188107	2.212534	1.461264	1.928688	-9.349884	-5.625984	-3.645420	-6.386142	-3.094221	5.962669	-2.256532	-22.888931	-1.825157	-3.669397	-3.714154	5.589635	-7.293630	-3.906699	-2.099645	2.469525	24.668869	-5.238567	5.513557	8.499978	-6.250575	-1.785618	2.771834	-11.013149	-6.675530	6.656777	
-7.308823	95.968724	16.699379	9.059531	16.622692	85.850197	-8.530600	6.225318	-3.514240	-1.884315	-1.973381	-6.284446	-5.174700	3.901057	4.160740	0.	0.	0.	-20.172386	-10.515846	-28.507452	3.316711	57.169956	-8.545021	1.656059	-12.266542	-4.977684	0.	0.	0.	-0.000003	0.000001	-0.000000	-12.889869	15.487830	7.198622	-2.191990	2.237654	1.442500	1.942947	-9.354596	-5.635125	-3.638187	-6.383374	-3.117603	5.963863	-2.273725	-22.861893	-1.838946	-3.648932	-3.746415	5.608946	-7.310000	-3.873292	-2.099645	2.469525	24.668869	-5.243656	5.521764	8.474615	-6.256897	-1.780909	2.840968	-11.230331	-6.650067	6.751074	
-7.311736	95.968773	16.698956	9.059285	16.621082	85.837234	-8.530381	6.223266	-3.501291	-1.884315	-1.973381	-6.284446	-5.174700	3.901057	4.160740	0.	0.	0.	-20.168501	-10.520455	-28.495050	3.316711	57.169956	-8.545021	1.656059	-12.266542	-4.977684	0.	0.	0.	0.000001	-0.000000	-0.000001	-12.891759	15.484807	7.211779	-2.191990	2.237654	1.442500	1.942947	-9.354596	-5.635125	-3.613971	-6.377004	-3.174754	5.946701	-2.273589	-22.818237	-1.849398	-3.633411	-3.770856	5.623594	-7.322406	-3.847973	-2.099645	2.469525	24.668869	-5.224422	5.510768	8.414721	-6.295518	-1.763514	2.913189	-11.332831	-6.625461	6.780875	
-7.312348	95.968753	16.698847	9.059160	16.620277	85.830696	-8.530592	6.221595	-3.501407	-1.886019	-1.972129	-6.301275	-5.174005	3.898374	4.184102	0.	0.	0.	-20.168489	-10.516773	-28.527224	3.261962	57.167789	-8.474459	1.656059	-12.266542	-4.977684	0.	0.	0.	-0.000000	-0.000000	0.000000	-12.892716	15.483283	7.218411	-2.170775	2.269123	1.407561	1.935214	-9.373638	-5.670039	-3.601952	-6.390000	-3.130034	5.938650	-2.273563	-22.797638	-1.854637	-3.625615	-3.783120	5.630947	-7.328636	-3.835267	-2.099645	2.469525	24.668869	-5.215086	5.505564	8.385573	-6.314342	-1.755044	2.949295	-11.382716	-6.607932	6.797969	
-7.314538	95.968773	16.698546	9.058909	16.618652	85.817627	-8.530369	6.219526	-3.488350	-1.887302	-1.971654	-6.314996	-5.173603	3.896811	4.197722	0.	0.	0.	-20.165884	-10.517344	-28.540798	3.224806	57.166298	-8.426562	1.656059	-12.266542	-4.977684	0.	0.	0.	0.000001	0.000000	-0.000000	-12.894619	15.480233	7.231677	-2.152455	2.290195	1.382323	1.922784	-9.392059	-5.699775	-3.574110	-6.388848	-3.130197	5.921196	-2.273677	-22.752155	-1.865061	-3.610115	-3.807496	5.645575	-7.341011	-3.810004	-2.099645	2.469525	24.668869	-5.203866	5.499601	8.350457	-6.357576	-1.735978	3.025331	-11.472223	-6.573401	6.828505	
-7.316496	95.968802	16.698262	9.058726	16.617470	85.808128	-8.530205	6.218023	-3.478868	-1.887608	-1.971544	-6.318257	-5.173506	3.896442	4.200960	0.	0.	0.	-20.164352	-10.516623	-28.557920	3.187470	57.164772	-8.378455	1.656059	-12.266542	-4.977684	0.	0.	0.	-0.000001	0.000001	-0.000001	-12.895998	15.478017	7.241311	-2.133499	2.311197	1.356857	1.907898	-9.411448	-5.683292	-3.550320	-6.383593	-3.175624	5.904341	-2.273882	-22.708113	-1.874665	-3.595805	-3.829982	5.659074	-7.352429	-3.786693	-2.099645	2.469525	24.668869	-5.195182	5.495199	8.323195	-6.363970	-1.730050	3.102225	-11.553535	-6.520459	6.870123	
-7.316496	95.968802	16.698262	9.058726	16.617470	85.808128	-8.530205	6.218023	-3.478868	-1.887608	-1.971544	-6.318257	-5.173506	3.896442	4.200960	0.	0.	0.	-20.164999	-10.514614	-28.570797	3.169123	57.164021	-8.354807	1.656059	-12.266542	-4.977684	0.	0.	0.	-0.000001	0.000001	-0.000001	-12.895998	15.478017	7.241311	-2.123943	2.321715	1.344074	1.900869	-9.420724	-5.687588	-3.539355	-6.382585	-3.181330	5.897789	-2.273922	-22.691374	-1.879192	-3.589064	-3.840569	5.665439	-7.357806	-3.775717	-2.099645	2.469525	24.668869	-5.190654	5.492907	8.308987	-6.363970	-1.730050	3.102225	-11.584779	-6.495939	6.927034	
-7.316496	95.968802	16.698262	9.058726	16.617470	85.808128	-8.530205	6.218023	-3.478868	-1.887608	-1.971544	-6.318257	-5.173506	3.896442	4.200960	0.	0.	0.	-20.167379	-10.507163	-28.618439	3.101245	57.161190	-8.267328	1.655814	-12.269652	-4.978552	0.	0.	0.	-0.000001	0.000001	-0.000001	-12.895998	15.478017	7.241311	-2.105307	2.362423	1.302690	1.890245	-9.457770	-5.698077	-3.515675	-6.381527	-3.175747	5.887482	-2.253341	-22.670876	-1.889724	-3.573359	-3.865215	5.680259	-7.370322	-3.750157	-2.099645	2.469525	24.668869	-5.175426	5.485183	8.261189	-6.380824	-1.720981	3.159089	-11.689793	-6.356949	7.070331	
-7.316496	95.968802	16.698262	9.058726	16.617470	85.808128	-8.530205	6.218023	-3.478868	-1.887608	-1.971544	-6.318257	-5.173506	3.896442	4.200960	0.	0.	0.	-20.167902	-10.505524	-28.628893	3.086355	57.160553	-8.248133	1.655276	-12.276300	-4.980388	0.	0.	0.	-0.000001	0.000001	-0.000001	-12.895998	15.478017	7.241311	-2.106629	2.367154	1.299425	1.892880	-9.461932	-5.716009	-3.508557	-6.381628	-3.167585	5.884243	-2.246063	-22.663994	-1.889724	-3.573359	-3.865215	5.680259	-7.370322	-3.750157	-2.099645	2.469525	24.668869	-5.173581	5.484246	8.255399	-6.377512	-1.710114	3.162548	-11.720425	-6.322150	7.108676	
-7.316496	95.968802	16.698262	9.058726	16.617470	85.808128	-8.530205	6.218023	-3.478868	-1.887608	-1.971544	-6.318257	-5.173506	3.896442	4.200960	0.	0.	0.	-20.168785	-10.502729	-28.646799	3.060838	57.159477	-8.215265	1.654077	-12.291236	-4.984534	0.	0.	0.	-0.000001	0.000001	-0.000001	-12.895998	15.478017	7.241311	-2.106629	2.367154	1.299425	1.894377	-9.460487	-5.756948	-3.502966	-6.384965	-3.132028	5.885445	-2.234511	-22.672653	-1.895301	-3.565054	-3.878244	5.688106	-7.376938	-3.736640	-2.099645	2.469525	24.668869	-5.173581	5.484246	8.255399	-6.363059	-1.664795	3.169718	-11.784032	-6.263574	7.165202	
-7.316496	95.968802	16.698262	9.058726	16.617470	85.808128	-8.530205	6.218023	-3.478868	-1.887608	-1.971544	-6.318257	-5.173506	3.896442	4.200960	0.	0.	0.	-20.169144	-10.501596	-28.654058	3.050492	57.159035	-8.201927	1.653445	-12.299071	-4.986707	0.	0.	0.	-0.000001	0.000001	-0.000001	-12.895998	15.478017	7.241311	-2.106629	2.367154	1.299425	1.894914	-9.459959	-5.771830	-3.501772	-6.386457	-3.117027	5.887333	-2.233807	-22.680283	-1.895301	-3.565054	-3.878244	5.688106	-7.376938	-3.736640	-2.099645	2.469525	24.668869	-5.173581	5.484246	8.255399	-6.363059	-1.664795	3.169718	-11.801332	-6.205377	7.190085	
-7.316496	95.968802	16.698262	9.058726	16.617470	85.808128	-8.530205	6.218023	-3.478868	-1.887608	-1.971544	-6.318257	-5.173506	3.896442	4.200960	0.	0.	0.	-20.169483	-10.500529	-28.660873	3.040782	57.158619	-8.189425	1.651573	-12.322406	-4.993177	0.	0.	0.	-0.000001	0.000001	-0.000001	-12.895998	15.478017	7.241311	-2.096143	2.383759	1.281220	1.887562	-9.475304	-5.765358	-3.500806	-6.387662	-3.104844	5.893070	-2.231658	-22.703518	-1.905234	-3.550235	-3.901484	5.702102	-7.388737	-3.712527	-2.099645	2.469525	24.668869	-5.171782	5.483335	8.249768	-6.367471	-1.607642	3.179911	-11.839671	-6.072518	7.214727	
-7.316496	95.968802	16.698262	9.058726	16.617470	85.808128	-8.530205	6.218023	-3.478868	-1.887608	-1.971544	-6.318257	-5.173506	3.896442	4.200960	0.	0.	0.	-20.169483	-10.500529	-28.660873	3.040782	57.158619	-8.189425	1.650461	-12.336138	-4.996983	0.	0.	0.	-0.000001	0.000001	-0.000001	-12.895998	15.478017	7.241311	-2.096746	2.398044	1.269850	1.890017	-9.489036	-5.758641	-3.508010	-6.390675	-3.080773	5.903611	-2.229353	-22.738981	-1.910434	-3.542461	-3.913666	5.709433	-7.394924	-3.699887	-2.099645	2.469525	24.668869	-5.165806	5.480308	8.231071	-6.378521	-1.574472	3.179848	-11.854751	-5.987344	7.237741	
-7.316496	95.968802	16.698262	9.058726	16.617470	85.808128	-8.530205	6.218023	-3.478868	-1.887608	-1.971544	-6.318257	-5.173506	3.896442	4.200960	0.	0.	0.	-20.169483	-10.500529	-28.660873	3.040782	57.158619	-8.189425	1.650216	-12.339198	-4.997838	0.	0.	0.	-0.000001	0.000001	-0.000001	-12.895998	15.478017	7.241311	-2.098279	2.408866	1.266026	1.892627	-9.499171	-5.771100	-3.520952	-6.397394	-3.028295	5.919541	-2.226125	-22.790670	-1.911559	-3.540774	-3.916312	5.711025	-7.396264	-3.697140	-2.099645	2.469525	24.668869	-5.162482	5.478623	8.220663	-6.366670	-1.535287	3.189975	-11.892671	-5.911188	7.249846	
-7.316496	95.968802	16.698262	9.058726	16.617470	85.808128	-8.530205	6.218023	-3.478868	-1.887608	-1.971544	-6.318257	-5.173506	3.896442	4.200960	0.	0.	0.	-20.169483	-10.500529	-28.660873	3.040782	57.158619	-8.189425	1.650216	-12.339198	-4.997838	0.	0.	0.	-0.000001	0.000001	-0.000001	-12.895998	15.478017	7.241311	-2.096358	2.412845	1.270755	1.889947	-9.503148	-5.779037	-3.529630	-6.401117	-3.002512	5.928063	-2.224442	-22.817553	-1.911559	-3.540774	-3.916312	5.711025	-7.396264	-3.697140	-2.099645	2.469525	24.668869	-5.162482	5.478623	8.220663	-6.350239	-1.482393	3.198994	-11.924704	-5.905532	7.245589	
-7.316496	95.968802	16.698262	9.058726	16.617470	85.808128	-8.530205	6.218023	-3.478868	-1.887608	-1.971544	-6.318257	-5.173506	3.896442	4.200960	0.	0.	0.	-20.169483	-10.500529	-28.660873	3.040782	57.158619	-8.189425	1.650216	-12.339198	-4.997838	0.	0.	0.	-0.000001	0.000001	-0.000001	-12.895998	15.478017	7.241311	-2.087810	2.430527	1.291792	1.877532	-9.521331	-5.800137	-3.573928	-6.418993	-2.889475	5.966475	-2.216658	-22.937077	-1.911559	-3.540774	-3.916312	5.711025	-7.396264	-3.697140	-2.099645	2.469525	24.668869	-5.162482	5.478623	8.220663	-6.325840	-1.403511	3.213202	-11.933758	-5.737504	7.205898	
